PathFileType	4	(X/Y/Z)	0331.trc
DataRate	CameraRate	NumFrames	NumMarkers	Units	OrigDataRate	OrigDataStartFrame	OrigNumFrames
120	120	7	27	m	120	504	1006
Frame#	Time	RHip			RKnee			RAnkle			RBigToe			RSmallToe			RHeel			LHip			LKnee			LAnkle			LBigToe			LSmallToe			LHeel			Nose			REye			LEye			RShoulder			RElbow			RWrist			RThumb			RIndex			RPinky			LShoulder			LElbow			LWrist			LThumb			LIndex			LPinky		
		X	Y	Z	X	Y	Z	X	Y	Z	X	Y	Z	X	Y	Z	X	Y	Z	X	Y	Z	X	Y	Z	X	Y	Z	X	Y	Z	X	Y	Z	X	Y	Z	X	Y	Z	X	Y	Z	X	Y	Z	X	Y	Z	X	Y	Z	X	Y	Z	X	Y	Z	X	Y	Z	X	Y	Z	X	Y	Z	X	Y	Z	X	Y	Z	X	Y	Z	X	Y	Z	X	Y	Z
507	4.225	0.0069779452861492	0.233629407968241	0.9073507496674246	-0.0159621544663488	0.2128659663763518	0.4916615925654389	-0.0396323914255912	0.2629858669357444	0.0812013562144433	-0.0406813406497146	0.0667111214245391	0.0133928270275731	-0.0747968274687278	0.1044961368910747	0.0182567193299426	-0.0400286818544485	0.3054378946746291	0.0207583290149063	0.2241359926919441	0.2424383586925538	0.9038876488915074	0.2538568641513644	0.2254278494719321	0.4931189804939924	0.2997200450774709	0.2844535230097202	0.0785544904310185	0.3162548379595072	0.0915821129079595	0.0147815703233874	0.3417470318509321	0.1326523556352965	0.0207052933172294	0.2935308238708387	0.3180527919806514	0.0246041681431322	0.1121256661948654	0.0166760476421016	1.528372604299737	0.0884450800805231	0.0163367006826199	1.5616277013160027	0.1348445852358922	0.0247169584465629	1.5630845077688484	-0.0841625337785191	0.2090717287808405	1.382846840451584	-0.1849912626962493	0.2150930342617816	1.1108179620368106	-0.2776923772119876	0.1145774722574789	0.8962751798774884	-0.2719681905650886	0.0713006051298414	0.8306008867906108	-0.3063844863659684	0.0684460452568352	0.8099580656286621	-0.3079580536513839	0.1243749719241516	0.8010046928219486	0.3016386614796529	0.2277927099694647	1.4008391564912188	0.4050132063149653	0.222310731824824	1.1279420834132772	0.4732122245591119	0.1237536575662088	0.8966623086276813	0.466433277438042	0.063211094392548	0.8417951340325261	0.4888335778698959	0.0592127468802674	0.8136093486618301	0.4888717001605825	0.1211147230931386	0.8008356490903019
508	4.233333333333333	0.0065451264030298	0.2345424422132918	0.9071549521442808	-0.0170700682115229	0.2128611470707166	0.4913923396152513	-0.039642955526487	0.2629555772669559	0.0811477129172759	-0.0399495312269275	0.0671837883396475	0.0133423710937105	-0.0746100365862911	0.1044783183646929	0.0181312103452228	-0.0401229701579225	0.3052863489132665	0.0208398260933369	0.2226336047110313	0.2451766044621678	0.9041749708509308	0.2533104761666436	0.2258617292604448	0.4934792552395156	0.2996324782661071	0.2842766829875645	0.0787637940461793	0.3157869315255949	0.0923987891109187	0.014566755793605	0.3414221324169698	0.1333700201311165	0.0207142611151106	0.2931455883468506	0.3178118329439564	0.025253312700258	0.1097315344114299	0.0153278303312029	1.5247375581434803	0.0864973756638467	0.0140391349532615	1.558114938540582	0.1328117976516087	0.0228141888637109	1.5595751073162258	-0.0858435527612511	0.2082938793784848	1.382508357759393	-0.1881869266992743	0.2148393208000101	1.1109775778020377	-0.281021154888862	0.1119757118497935	0.8976515207870984	-0.2756384788476907	0.0668566130963218	0.8332486044037107	-0.3099014692322117	0.0647503306194368	0.8120926174834803	-0.3119592429943081	0.1208890506172306	0.8026634801689518	0.2992738218065587	0.2278671979179605	1.4013645800551604	0.4049375342307446	0.2230591864525994	1.1292054105468787	0.4747058231101346	0.1234101550060002	0.8989225996142666	0.4692329321397975	0.0611618435276735	0.844915708109052	0.4911818192149489	0.0572376493310224	0.8169674336849688	0.4906922381802691	0.1203900344200712	0.8034348424300215
509	4.241666666666666	0.0059663206163056	0.2357946370617979	0.9069742302705492	-0.0182022276800045	0.2130076613484203	0.4909931557518597	-0.0396765576849349	0.2629186710534281	0.0810567993029105	-0.0393196866437284	0.0676323956063203	0.0132756637647211	-0.0744762043574182	0.1044953948196309	0.0180424712129291	-0.040210986681342	0.3051567492286695	0.0209146209679654	0.2211062971600994	0.2481070248822774	0.9045057849225157	0.2528005223202612	0.2263040123896046	0.4937907504582473	0.2995040418693722	0.2840814694714533	0.0789868259604422	0.3153748530034966	0.0931464162934467	0.0143412077855806	0.3411774803529065	0.1340515929276725	0.0206896006134886	0.2927504944821164	0.3175280855997446	0.0259106386472935	0.107290174898407	0.0139418856265377	1.5210958466952074	0.0844736390584492	0.0117093436264003	1.554578753312714	0.1307776096949618	0.0209424578944878	1.556067316473153	-0.0875366000518924	0.2074537872525111	1.3820889963518503	-0.1912910168200448	0.2145857309466496	1.1110115645123066	-0.2841827803672645	0.1097793534859468	0.8987255203387461	-0.2790505355612241	0.0630308773554689	0.8355624497775359	-0.3132117344747486	0.0615515734620493	0.8138073760906599	-0.3157719546509336	0.1178560343148165	0.8039974461144473	0.2968780913066595	0.2279636974454494	1.4018083356375428	0.4046309084520462	0.2240609059096975	1.1303499430266724	0.4758866515637502	0.1234794282754088	0.9010403171712862	0.471675120609496	0.0595633828062641	0.8479495813293522	0.4931747480741135	0.0559542461509215	0.8201869893453503	0.4920568143628017	0.1202747773578202	0.8059797467105884
510	4.25	0.0051327365854521	0.2375642621190284	0.9068564421023426	-0.0193369532241096	0.2133177121634959	0.4905166800045337	-0.0397390528751206	0.2628675721456101	0.0809243194526979	-0.038868137149838	0.0680224892277214	0.0131979903454423	-0.0744230405609151	0.1045287575751545	0.0179849112756103	-0.0402962023834556	0.3050493368844185	0.0209921974295193	0.2195544219294219	0.2512246730122678	0.9049007736962374	0.2523249738928889	0.2267674712076668	0.4940902021147839	0.2993186762247196	0.2838871003498657	0.0792189054542543	0.3150157064138911	0.0938043676389599	0.014121899212265	0.3409982070244358	0.1346803722247269	0.0206369576038321	0.2923362465834099	0.3172178265252134	0.0265548000464417	0.1048429088526277	0.0125156007445236	1.5174691117835486	0.0823839260491069	0.0093604814796234	1.5510380265671544	0.1287628924559848	0.0191053882919363	1.5525805971424862	-0.0892375574333561	0.2065444155784434	1.3815872024617293	-0.1942994373624138	0.2143210473898368	1.1109141538856382	-0.2871833309581966	0.1079713518199107	0.899469616445547	-0.2822012063176584	0.0598392068684032	0.837464481643851	-0.3163163348195659	0.0588494497338409	0.8150566957749988	-0.3193694108916944	0.1152514915973189	0.8049814565220154	0.29446724584974	0.2280732079107083	1.4021647946775453	0.4040951880968715	0.2253193278307557	1.1313702400942631	0.4767459992930973	0.1239503412681422	0.9029882620972598	0.4737239088086341	0.058458786712678	0.8508490825290371	0.4947978867539792	0.0553714015287509	0.8232511927081896	0.4929907943548255	0.1207296102323243	0.8084541535049432
511	4.258333333333334	0.0040035344917664	0.2399306478865867	0.906822416797248	-0.0204579597876388	0.2137963035467302	0.4900160213413638	-0.0398336193780738	0.2627979239523897	0.0807525662846353	-0.03864210819221	0.0683270353447427	0.0131164576720152	-0.0744712871789253	0.1045656859176597	0.0179496032819947	-0.0403827396095604	0.3049638252564057	0.0210815682719119	0.2179902740687915	0.2545185395505981	0.905367340874181	0.2518825424152186	0.2272636297238783	0.494406559070298	0.2990606292802472	0.2837043132327485	0.0794617402224852	0.3147092692778829	0.0943565299474761	0.0139179384423123	0.3408788216372735	0.1352445139225409	0.0205660595205302	0.2918769831984973	0.3168870336375202	0.0271763675318376	0.102424822613728	0.0110511067169985	1.5138764860925271	0.080236756082254	0.0069997983674833	1.54750841119034	0.1267800762414861	0.0173053090006553	1.5491289805080304	-0.0909465678994634	0.2055586380474309	1.3810021533376158	-0.1972109758686525	0.2140404422800044	1.1106815297766963	-0.2900169228122314	0.1065249052235475	0.8998731706262736	-0.2850890155565552	0.0572446079369657	0.8389182334100937	-0.319215707737949	0.0566271185477521	0.8158355495543349	-0.3227221137088164	0.1130436435852492	0.8056156777363574	0.2920500428629752	0.2281880631263973	1.4024359365282313	0.4033310839153052	0.2268336717351405	1.1322620279651678	0.4772735775322533	0.1248095282908488	0.904741483818429	0.4753477563828535	0.0578760933712052	0.8535629529734426	0.4960325483817925	0.0554682263222113	0.826138746148397	0.4935191702743075	0.1217052811082961	0.8108280180466786
512	4.266666666666667	0.00261793907475	0.2428630507054993	0.9068644347173306	-0.0215522550172128	0.214441601547321	0.4895380321475672	-0.0399600554114769	0.2627125170141808	0.0805502110363285	-0.0386504752679703	0.0685388870286525	0.0130381597572127	-0.0746268105956887	0.1046064119574024	0.0179275532586679	-0.0404710817178911	0.3048977816620968	0.0211887182148968	0.2164378051038282	0.2579675007024292	0.9058926320186436	0.2514782813247045	0.2278038325932247	0.4947596347882087	0.29871505624373	0.2835347426672375	0.0797203780646611	0.3144668007652449	0.0947799694498889	0.0137341069901113	0.3408249813731288	0.1357252380360076	0.0204901180297952	0.2913364428294079	0.3165345873535244	0.0277753859930099	0.1000576782983585	0.0095547418224814	1.5103317257789883	0.0780389941120019	0.0046309400312709	1.5439979090217548	0.1248255773439779	0.0155429561765052	1.5457196766170709	-0.0926679860297595	0.2044915281708481	1.3803343800900971	-0.2000253487622813	0.2137445133592531	1.1103136684646382	-0.2926652463776704	0.105402805642971	0.8999418361823336	-0.2877073296652927	0.0551742409861432	0.8399202199567612	-0.321905513532542	0.0548539204158589	0.81617890001531	-0.3258000292039565	0.1112004326366388	0.8059226107552957	0.2896292973723436	0.2282994113247195	1.402632711907769	0.4023399474975165	0.2285981238871676	1.1330250405362283	0.4774591461475811	0.1260461089360038	0.9062819685950816	0.4765216710981417	0.0578324179690999	0.8560436976812769	0.4968545351005983	0.0562042726222688	0.8288236186294884	0.4936635764126346	0.1231546378510274	0.8130653522404335
513	4.275	0.0010692779298587	0.2462564064750916	0.906955704433108	-0.0226088196967708	0.2152398024164743	0.4891168550558996	-0.0401155710215151	0.2626206091015193	0.08032477893923	-0.0388575498856808	0.0686765941093174	0.0129696287922432	-0.0748677402183927	0.1046601275188792	0.0179103056521048	-0.0405570962167818	0.3048441310457712	0.0213129682724308	0.2149318882039965	0.2615358778952696	0.90644010867261	0.2511202611137075	0.2283999159517729	0.4951603310799869	0.2982700311217935	0.2833713422548332	0.0799978590912622	0.3143114899507109	0.0950441268995721	0.0135739293201493	0.3408508045820774	0.1360954595126631	0.0204235958757265	0.2906791256742607	0.3161552330130697	0.0283512070905251	0.0977468569607055	0.0080335960031824	1.5068415588049346	0.0757959363055695	0.0022597464362653	1.5405069691335411	0.1228763505246653	0.0138113490624258	1.5423519870403553	-0.0944102893802193	0.2033399109263979	1.379585356903027	-0.2027409240788738	0.2134372692653952	1.109813572123977	-0.2951025477171515	0.1045576483193852	0.8996931742407325	-0.2900403722597596	0.0535418841294284	0.8404883313246337	-0.3243745214083666	0.0534903749684357	0.8161456349875119	-0.3285735001004409	0.1096902804598382	0.8059372336650661	0.2872052539991065	0.228396388560236	1.4027710462957976	0.401124497300599	0.230603133622616	1.1336655193316048	0.4772933934746046	0.1276552173083567	0.9076040084636118	0.4772287457317836	0.0583389154804578	0.8582531113437692	0.4972358705549387	0.0575302098929879	0.8312749521266274	0.4934362763271913	0.1250386936766734	0.8151290785775192
